# xmcd CD database file
# Copyright (C) 1997 Ti Kan
#
# Track frame offsets:
#  150
#  17825
#  51805
#  72137
#  95387
#  116462
#  137882
#  156060
#  174022
#  186617
#  209090
#  226090
#  245085
#  261265
#  275125
#  293937
#  303662
#  319217
#  329330
#
# Disc length: 4480 seconds
#
# Revision: 1
# Processed by: cddbd v1.4b41PL1 Copyright (c) Steve Scherf et al.
# Submitted via: CDWizzard Release:4.22
#
DISCID=24117e13
DTITLE=KDJ - Warner Music Advisory Amazing Song
DYEAR=1900
DGENRE=
TTITLE0=Change the World
TTITLE1=C'mon and Ride It(The Train)
TTITLE2=Twisted
TTITLE3=Humans Being
TTITLE4=Love Affair
TTITLE5=Too Much Heaven
TTITLE6=Who Will Save Your Soul
TTITLE7=I Love You Always Forever
TTITLE8=Dinner With Delores
TTITLE9=Back To The World
TTITLE10=Tahitian Moon
TTITLE11=Blackberry Molasses
TTITLE12=Not  A Singalong
TTITLE13=Love is all around
TTITLE14=The Messiah Will Come Again
TTITLE15=Dedicated To The One Love
TTITLE16=Love Theme From Cousins
TTITLE17=Authority
TTITLE18=?
EXTD=
EXTT0=
EXTT1=
EXTT2=
EXTT3=
EXTT4=
EXTT5=
EXTT6=
EXTT7=
EXTT8=
EXTT9=
EXTT10=
EXTT11=
EXTT12=
EXTT13=
EXTT14=
EXTT15=
EXTT16=
EXTT17=
EXTT18=
PLAYORDER=
